<?xml version="1.0" encoding="utf-8"?>
<!-- Generator: Adobe Illustrator 27.4.0, SVG Export Plug-In . SVG Version: 6.00 Build 0)  -->
<svg version="1.1" id="Ebene_1" xmlns="http://www.w3.org/2000/svg" xmlns:xlink="http://www.w3.org/1999/xlink" x="0px" y="0px"
	 viewBox="0 0 24 24" style="enable-background:new 0 0 24 24;" xml:space="preserve">
<style type="text/css">
	.st0{display:none;fill:#1D1D1B;stroke:#000000;stroke-miterlimit:10;}
	.st1{fill:#FFFFFF;}
</style>
<path class="st0" d="M19.5,23.1h-15c-2,0-3.6-1.6-3.6-3.6v-15c0-2,1.6-3.6,3.6-3.6h15c2,0,3.6,1.6,3.6,3.6v15
	C23.1,21.5,21.5,23.1,19.5,23.1z"/>
<path class="st1" d="M11.5,18c5.9,0.1,9.1-7.4,4.8-11.5c-2.5-2.6-7.1-2.6-9.6,0C2.5,10.5,5.6,18.1,11.5,18z M11.5,19.9
	C2.1,19.8-0.5,7,8.1,3.2c8.2-3.5,15.8,6.4,10.2,13.4l3.2,3.2c0.3,0.3,0.6,0.6,0,1.2l-0.1,0.1c-0.6,0.5-0.9,0.3-1.2,0L16.9,18l0,0
	C15.4,19.2,13.5,19.9,11.5,19.9z"/>
<path class="st1" d="M11.2,15.7l2.1-5.6h1l2.1,5.6h-1L15,14.2h-2.3l-0.5,1.4h-1V15.7z M13,13.4h1.7l-0.8-2.3l0,0L13,13.4z M7.5,14.3
	l-0.7-0.7l2.4-2.4c-0.3-0.3-0.6-0.7-0.8-1C8.2,9.9,8,9.5,7.9,9.1h1C9,9.4,9.1,9.6,9.3,9.9c0.2,0.2,0.4,0.5,0.6,0.7
	c0.3-0.4,0.6-0.8,0.9-1.2C11,9,11.2,8.6,11.3,8.1H6.1V7.2h3.3V6.3h0.9v0.9h3.3v0.9h-1.4c-0.2,0.6-0.4,1.1-0.7,1.6s-0.6,1-1,1.5
	l1.1,1.2l-0.4,1l-1.5-1.5L7.5,14.3z"/>
<path class="st1" d="M24.3,14.5"/>
</svg>
