<?xml version="1.0" encoding="utf-8"?>
<!-- Generator: Adobe Illustrator 28.0.0, SVG Export Plug-In . SVG Version: 6.00 Build 0)  -->
<svg version="1.1" xmlns="http://www.w3.org/2000/svg" xmlns:xlink="http://www.w3.org/1999/xlink" x="0px" y="0px"
	 viewBox="0 0 357 357" style="enable-background:new 0 0 357 357;" xml:space="preserve">
<style type="text/css">
	.st0{fill:#1D1D1B;}
	.st1{fill:url(#SVGID_1_);}
	.st2{opacity:0.11;stroke:#000000;stroke-width:5;stroke-miterlimit:10;}
	.st3{fill:#FFFFFF;}
	.st4{opacity:6.000000e-02;}
	.st5{fill-rule:evenodd;clip-rule:evenodd;}
	.st6{fill-rule:evenodd;clip-rule:evenodd;fill:#7861AA;}
</style>
<g id="Background">
	<g id="Ebene_6">
		<circle class="st0" cx="178.5" cy="178.5" r="151.3"/>
		<radialGradient id="SVGID_1_" cx="178.5196" cy="178.5" r="147.7787" gradientUnits="userSpaceOnUse">
			<stop  offset="0" style="stop-color:#622FBF"/>
			<stop  offset="1" style="stop-color:#1D1D1B"/>
		</radialGradient>
		<circle class="st1" cx="178.5" cy="178.5" r="147.8"/>
	</g>
</g>
<g id="Text">
	<path id="Translation_x5F_shaddow" class="st2" d="M174.9,275l44.9-120.9c0.6-1.5,2-2.5,3.7-2.5h19.8c1.6,0,3.1,1,3.7,2.5l43,115.6
		c0.9,2.6-0.9,5.3-3.7,5.3h-15.8c-1.7,0-3.1-1-3.7-2.6l-8-22.9c-0.5-1.6-2-2.6-3.7-2.6h-43.5c-1.7,0-3.1,1-3.7,2.6l-8,22.9
		c-0.5,1.6-2,2.6-3.7,2.6L174.9,275L174.9,275z M94,242.6L83.4,232c-1.5-1.5-1.5-4,0-5.5l45-45c1.5-1.5,1.5-3.9,0.1-5.4
		c-5.2-5.6-9.9-11.7-14.1-18.2c-3.9-6-7.4-12.6-10.7-19.6c-1.2-2.6,0.7-5.5,3.6-5.5h16.3c1.5,0,2.8,0.8,3.5,2.1
		c2.7,5.1,5.5,9.6,8.4,13.7c2.6,3.6,5.5,7.3,8.8,11c1.6,1.7,4.3,1.7,5.9-0.1c4.5-5.2,9.1-11.7,13.9-19.6c4.6-7.6,8.2-14.9,11-21.8
		c1-2.6-0.9-5.4-3.6-5.4H69c-2.2,0-3.9-1.7-3.9-3.9V93.8c0-2.2,1.7-3.9,3.9-3.9h62.6c2.2,0,3.9-1.7,3.9-3.9V73.7
		c0-2.2,1.7-3.9,3.9-3.9h15.1c2.2,0,3.9,1.7,3.9,3.9V86c0,2.2,1.7,3.9,3.9,3.9h62.6c2.2,0,3.9,1.7,3.9,3.9v15.1
		c0,2.2-1.7,3.9-3.9,3.9h-21.6c-1.7,0-3.2,1.1-3.7,2.7c-3.6,11-8.6,22.4-15.2,34.1c-6.2,11.2-12.5,20.2-18.8,27
		c-1.4,1.5-1.4,3.9,0.1,5.4l16.9,17.2c1,1.1,1.4,2.7,0.9,4.1l-5.6,15.5c-1,2.7-4.5,3.5-6.5,1.4l-21.6-22.2c-1.5-1.6-4-1.6-5.6,0
		l-44.8,44.6C98,244.1,95.5,244.1,94,242.6z M221.5,226.5h23.8c2.7,0,4.6-2.7,3.7-5.2l-11.9-34c-1.2-3.5-6.2-3.5-7.4,0l-11.9,34
		C216.9,223.8,218.8,226.5,221.5,226.5z"/>
	<path id="Translation" class="st3" d="M174.9,275l44.9-120.9c0.6-1.5,2-2.5,3.7-2.5h19.8c1.6,0,3.1,1,3.7,2.5l43,115.6
		c0.9,2.6-0.9,5.3-3.7,5.3h-15.8c-1.7,0-3.1-1-3.7-2.6l-8-22.9c-0.5-1.6-2-2.6-3.7-2.6h-43.5c-1.7,0-3.1,1-3.7,2.6l-8,22.9
		c-0.5,1.6-2,2.6-3.7,2.6L174.9,275L174.9,275z M94,242.6L83.4,232c-1.5-1.5-1.5-4,0-5.5l45-45c1.5-1.5,1.5-3.9,0.1-5.4
		c-5.2-5.6-9.9-11.7-14.1-18.2c-3.9-6-7.4-12.6-10.7-19.6c-1.2-2.6,0.7-5.5,3.6-5.5h16.3c1.5,0,2.8,0.8,3.5,2.1
		c2.7,5.1,5.5,9.6,8.4,13.7c2.6,3.6,5.5,7.3,8.8,11c1.6,1.7,4.3,1.7,5.9-0.1c4.5-5.2,9.1-11.7,13.9-19.6c4.6-7.6,8.2-14.9,11-21.8
		c1-2.6-0.9-5.4-3.6-5.4H69c-2.2,0-3.9-1.7-3.9-3.9V93.8c0-2.2,1.7-3.9,3.9-3.9h62.6c2.2,0,3.9-1.7,3.9-3.9V73.7
		c0-2.2,1.7-3.9,3.9-3.9h15.1c2.2,0,3.9,1.7,3.9,3.9V86c0,2.2,1.7,3.9,3.9,3.9h62.6c2.2,0,3.9,1.7,3.9,3.9v15.1
		c0,2.2-1.7,3.9-3.9,3.9h-21.6c-1.7,0-3.2,1.1-3.7,2.7c-3.6,11-8.6,22.4-15.2,34.1c-6.2,11.2-12.5,20.2-18.8,27
		c-1.4,1.5-1.4,3.9,0.1,5.4l16.9,17.2c1,1.1,1.4,2.7,0.9,4.1l-5.6,15.5c-1,2.7-4.5,3.5-6.5,1.4l-21.6-22.2c-1.5-1.6-4-1.6-5.6,0
		l-44.8,44.6C98,244.1,95.5,244.1,94,242.6z M221.5,226.5h23.8c2.7,0,4.6-2.7,3.7-5.2l-11.9-34c-1.2-3.5-6.2-3.5-7.4,0l-11.9,34
		C216.9,223.8,218.8,226.5,221.5,226.5z"/>
</g>
<g id="Arrows">
	<g id="ShadowArrow" class="st4">
		<path class="st5" d="M223.9,263.3c-1.1-2.1-4.1-1.9-5,0.3l-21.7,56c-0.6,1.6,0.3,3.2,1.9,3.7l60.5,16.3c2.5,0.7,4.3-1.9,3.2-4
			l-6.1-11.5c51.5-22.8,66.1-42,73.4-53.9l0.1-0.1c5.7-8.1,9.7-16.5,12.2-24.8l0.3-1.1c-0.1-10.8-18.2-35.8-31.7-50.1l-5.6-5.8
			c2.7,15.9-7.1,35.4-25.8,54.3c-7.7,8-16.7,15.7-26.7,22.5c-6.5,4.7-12.7,8.6-21.4,12.5L223.9,263.3z"/>
		<path class="st5" d="M93.6,223.8c2.1-1.1,1.9-4.1-0.3-5l-56-21.7c-1.6-0.6-3.2,0.3-3.7,1.9l-16.3,60.5c-0.7,2.5,1.9,4.3,4,3.2
			l11.5-6.1c22.8,51.5,42,66.1,53.9,73.4l0.1,0.1c8.1,5.7,16.5,9.7,24.8,12.2l1.1,0.3c10.8-0.1,35.8-18.2,50.1-31.7l5.9-5.5
			c-15.8,2.7-35.4-7.1-54.3-25.8c-8-7.7-15.7-16.7-22.5-26.7c-4.7-6.5-8.6-12.7-12.5-21.4L93.6,223.8z"/>
		<path class="st5" d="M133.1,93.6c1.1,2.1,4.1,1.9,5-0.3l21.7-56c0.6-1.6-0.3-3.2-1.9-3.7L97.5,17.3c-2.5-0.7-4.3,1.9-3.2,4
			l6.1,11.5c-51.5,22.8-66.1,42-73.4,53.9l-0.1,0.1c-5.7,8.1-9.7,16.5-12.2,24.8l-0.3,1.1c0.1,10.8,18.2,35.8,31.7,50.1l5.6,5.8
			c-2.7-15.8,7.1-35.2,25.8-54.2c7.7-8,16.7-15.7,26.7-22.5c6.5-4.7,12.7-8.6,21.4-12.5L133.1,93.6z"/>
		<path class="st5" d="M263.3,133.1c-2.1,1.1-1.9,4.1,0.3,5l56,21.7c1.6,0.6,3.2-0.3,3.7-1.9l16.3-60.5c0.7-2.5-1.9-4.3-4-3.2
			l-11.5,6.1c-22.8-51.5-42-66.1-53.9-73.4l-0.1-0.1c-8.1-5.7-16.5-9.7-24.8-12.2l-1.1-0.3c-10.8,0.1-35.8,18.2-50.1,31.7l-5.8,5.6
			c15.8-2.7,35.4,7.1,54.3,25.8c8,7.7,15.7,16.7,22.5,26.7c4.7,6.5,8.6,12.7,12.5,21.4L263.3,133.1z"/>
	</g>
	<g id="White_Arrows_00000083808610297212399410000015413161629119586225_">
		<path class="st6" d="M234.9,274.5c-1.1-2.1-4.1-1.9-5,0.3l-21.7,56c-0.6,1.6,0.3,3.2,1.9,3.7l60.5,16.3c2.5,0.7,4.3-1.9,3.2-4
			l-6.1-11.5c51.5-22.8,66.1-42,73.4-53.9l0.1-0.1c5.7-8.1,9.7-16.5,12.2-24.8l0.3-1.1c-0.1-10.8-18.2-35.8-31.7-50.1l-5.6-5.8
			c2.7,15.9-7.1,35.4-25.8,54.3c-7.7,8-16.7,15.7-26.7,22.5c-6.5,4.7-12.7,8.6-21.4,12.5L234.9,274.5z"/>
		<path class="st6" d="M82.3,235c2.1-1.1,1.9-4.1-0.3-5l-56-21.7c-1.6-0.6-3.2,0.3-3.7,1.9L6,270.6c-0.7,2.5,1.9,4.3,4,3.2l11.5-6.1
			c22.8,51.5,42,66.1,53.9,73.4l0.1,0.1c8.1,5.7,16.5,9.7,24.8,12.2l1.1,0.3c10.8-0.1,35.8-18.2,50.1-31.7l5.9-5.5
			c-15.8,2.7-35.4-7.1-54.3-25.8c-8-7.7-15.7-16.7-22.5-26.7c-4.7-6.5-8.6-12.7-12.5-21.4L82.3,235z"/>
		<path class="st6" d="M121.8,82.5c1.1,2.1,4.1,1.9,5-0.3l21.7-56c0.6-1.6-0.3-3.2-1.9-3.7L86.2,6.2c-2.5-0.7-4.3,1.9-3.2,4
			l6.1,11.5C37.6,44.5,23,63.8,15.7,75.6l-0.1,0.1c-5.7,8.1-9.7,16.5-12.2,24.8l-0.3,1.1c0.1,10.8,18.2,35.8,31.7,50.1l5.6,5.8
			c-2.7-15.8,7.1-35.2,25.8-54.2c7.7-8,16.7-15.7,26.7-22.5c6.5-4.7,12.7-8.6,21.4-12.5L121.8,82.5z"/>
		<path class="st6" d="M274.3,122c-2.1,1.1-1.9,4.1,0.3,5l56,21.7c1.6,0.6,3.2-0.3,3.7-1.9l16.3-60.5c0.7-2.5-1.9-4.3-4-3.2
			L335,89.3c-22.8-51.5-42-66.1-53.9-73.4l-0.1-0.1c-8.1-5.7-16.5-9.7-24.8-12.2l-1.1-0.3c-10.8,0.1-35.8,18.2-50.1,31.7l-5.8,5.6
			c15.8-2.7,35.4,7.1,54.3,25.8c8,7.7,15.7,16.7,22.5,26.7c4.7,6.5,8.6,12.7,12.5,21.4L274.3,122z"/>
	</g>
</g>
</svg>
