<?xml version="1.0" encoding="utf-8"?>
<!-- Generator: Adobe Illustrator 27.4.0, SVG Export Plug-In . SVG Version: 6.00 Build 0)  -->
<svg version="1.1" id="Ebene_1" xmlns="http://www.w3.org/2000/svg" xmlns:xlink="http://www.w3.org/1999/xlink" x="0px" y="0px"
	 viewBox="0 0 24 24" style="enable-background:new 0 0 24 24;" xml:space="preserve">
<style type="text/css">
	.st0{fill:#FFFFFF;}
</style>
<path class="st0" d="M21.5,19.8l-3.2-3.2c5.6-7-2-16.9-10.2-13.4c-8.6,3.8-6,16.6,3.4,16.7c2,0,3.9-0.7,5.4-1.9l3.3,3.1
	c0.3,0.3,0.6,0.5,1.2,0l0.1-0.1C22.1,20.4,21.8,20.1,21.5,19.8z M15.7,6.2c0.6,0.5,1.1,1.1,1.5,1.8h-2.4c-0.1-0.5-0.3-1-0.5-1.5
	c-0.2-0.5-0.4-1-0.7-1.4C14.4,5.3,15.1,5.7,15.7,6.2z M13.6,11.3c0,0.3,0,0.6,0,0.8c0,0.3,0,0.5-0.1,0.8H9.6c0-0.3-0.1-0.5-0.1-0.8
	c0-0.3,0-0.5,0-0.8c0-0.3,0-0.6,0-0.8s0-0.5,0.1-0.8h3.9c0,0.3,0.1,0.5,0.1,0.8S13.6,11,13.6,11.3z M12.5,6.3
	c0.3,0.5,0.5,1.1,0.6,1.7H10c0.2-0.6,0.4-1.2,0.6-1.7c0.3-0.5,0.6-1.1,0.9-1.5C11.9,5.2,12.2,5.7,12.5,6.3z M9.4,5
	C9.1,5.5,8.9,6,8.7,6.5C8.5,6.9,8.4,7.5,8.3,8H5.8c0.4-0.7,0.9-1.3,1.5-1.8C7.9,5.7,8.6,5.3,9.4,5z M5,10.4C5,10.2,5,9.9,5.1,9.6
	h2.8c0,0.3-0.1,0.5-0.1,0.8c0,0.3,0,0.5,0,0.8c0,0.3,0,0.6,0,0.8c0,0.3,0.1,0.5,0.1,0.8H5.1C5,12.7,5,12.4,5,12.1
	c0-0.3-0.1-0.5-0.1-0.8C4.9,11,4.9,10.7,5,10.4z M8.3,14.6c0.1,0.5,0.3,1,0.5,1.5c0.2,0.5,0.4,1,0.7,1.4c-0.8-0.2-1.5-0.6-2-1.1
	c-0.6-0.5-1.1-1.1-1.5-1.8H8.3z M10,14.6h3.1c-0.2,0.6-0.4,1.2-0.6,1.7c-0.3,0.5-0.6,1-0.9,1.5c-0.4-0.5-0.7-1-0.9-1.5
	C10.3,15.8,10.1,15.2,10,14.6z M13.7,17.5c0.2-0.5,0.5-0.9,0.7-1.4c0.2-0.5,0.3-1,0.5-1.5h2.4c-0.4,0.7-0.9,1.3-1.5,1.8
	C15.1,16.9,14.4,17.3,13.7,17.5z M18.1,12.1c0,0.3-0.1,0.5-0.2,0.8h-2.8c0-0.3,0.1-0.5,0.1-0.8c0-0.3,0-0.5,0-0.8c0-0.3,0-0.6,0-0.8
	c0-0.3-0.1-0.5-0.1-0.8h2.8c0.1,0.3,0.1,0.5,0.2,0.8c0,0.3,0,0.5,0,0.8C18.1,11.6,18.1,11.8,18.1,12.1z"/>
</svg>
