<?xml version="1.0" encoding="utf-8"?>
<!-- Generator: Adobe Illustrator 28.0.0, SVG Export Plug-In . SVG Version: 6.00 Build 0)  -->
<svg version="1.1" id="Ebene_1" xmlns="http://www.w3.org/2000/svg" xmlns:xlink="http://www.w3.org/1999/xlink" x="0px" y="0px"
	 viewBox="0 0 281.8 281.8" style="enable-background:new 0 0 281.8 281.8;" xml:space="preserve">
<style type="text/css">
	.st0{fill:#2A2A2A;stroke:#FFFFFF;stroke-width:3;stroke-miterlimit:10;}
	.st1{fill:#FFFFFF;}
	.st2{stroke:#FFFFFF;stroke-width:3;stroke-miterlimit:10;}
	.st3{fill:none;stroke:#FFFFFF;stroke-width:3;stroke-miterlimit:10;}
	.st4{fill:none;stroke:#FFFFFF;stroke-width:2;stroke-miterlimit:10;}
	.st5{fill:none;stroke:#FFFFFF;stroke-width:1.5;stroke-miterlimit:10;}
	.st6{fill:none;stroke:#FFFFFF;stroke-miterlimit:10;}
	.st7{fill:#9D9D9D;}
	.st8{fill:none;stroke:#2A2A2A;stroke-miterlimit:10;}
	.st9{fill:none;stroke:#2A2A2A;stroke-width:2;stroke-miterlimit:10;}
	.st10{fill:#2A2A29;}
	.st11{fill:none;stroke:#2A2A2A;stroke-width:1.5;stroke-miterlimit:10;}
	.st12{fill:none;stroke:#2A2A2A;stroke-width:3;stroke-miterlimit:10;}
	.st13{fill:none;stroke:#9D9D9D;stroke-width:2;stroke-miterlimit:10;}
</style>
<g id="Ebene_1_00000139978236820443011580000015137513423794043009_">
	<g id="Schwert1">
		<polyline class="st0" points="85.9,46.2 207.3,224.9 212.8,235.4 217.2,247.1 218.4,252.7 208.2,246.6 201.2,239.6 195.6,233.2 
			67.7,57.2 		"/>
		<polygon class="st0" points="67.5,51.8 47.5,26 58.4,18.3 79.4,44.4 		"/>
		<path class="st0" d="M96,41.9c-4.7,1.1-12.1,3.3-19.8,8.5c-6.5,4.3-10.8,9.2-13.6,12.8l-9.1-4.8c3.2-4.3,8.7-10.7,17.2-16.3
			s16.5-8.2,21.8-9.4L96,41.9z"/>
		<path class="st0" d="M53.3,9.1c2.6,0.5,3.4-0.9,5.5-0.2c2,0.7,3.5,2.8,3.8,4.4C63.7,20.1,45.2,31,40,27.1c-1.3-1-2.3-3.2-2.2-5.3
			c0.1-2,1.2-2.2,1.7-4.8c0.6-3.1-0.7-3.8,0.1-6c0.9-2.4,3.3-3.5,3.9-3.8c0.7-0.3,2.3-1.1,4.2-0.8C50.5,6.6,50.6,8.5,53.3,9.1z"/>
	</g>
	<g id="Schwert2">
		<path class="st0" d="M221.2,59.2l-6.2,8.6l-94.4,136.9l-8.8,10.6l-40.3,30.3l37.3-50.9l70.7-120.8l2.9,4.2l10.7-17.3
			c0,0,4-7.5,8.1-10.5C205.3,47.3,221.2,59.2,221.2,59.2z"/>
		<path class="st0" d="M199,47.4c1.8-2.2,6.2-8,9.1-12.6C216.8,21.1,231.8,3,234.6,3s9.4,14.3,8.7,15.3s-16.3,5.1-23.1,17
			c-3.6,6.2-8.1,13.1-10.2,16.4"/>
		<path class="st1" d="M177.7,89.3l-5.9-3.7c2.3-3.7,4.4-7.1,6.4-10.2c5.6-9,9.7-15.5,11.7-19c0.7-1.2,2.8-4.8,6.7-8.3
			c1.9-1.8,3.2-2.9,5.1-3.7c5-2,9.4,1,13.3,3.7c2.1,1.4,4.3,2.9,6.2,3.4c5.3,1.3,25.7-13.7,25.7-13.7s1.3-0.5,0.9,0.9
			s-8.6,16.3-25.9,22.2c-3.2-0.8-8.3-5.4-10.8-7.1c-3.2-2.2-5.3-3.5-6.8-2.9c-0.6,0.2-1.4,0.9-2.9,2.3c-3.1,2.8-4.7,5.6-5.3,6.6
			C194,63.4,189.9,70,184.2,79C182.1,82.2,180,85.6,177.7,89.3z"/>
		<path class="st2" d="M222.2,16.7c3.2,3.8,4.5,5.4,7.7,9.2"/>
	</g>
	<g id="Gun2">
		<polygon class="st2" points="161.6,169.3 153.8,149.3 231.1,118.8 240.6,142.7 		"/>
		<polygon class="st0" points="256.7,116.3 277.3,110.3 266.9,91.3 252.7,108.7 		"/>
		<path class="st0" d="M71.9,207.6c76.1-24.9,108.7-37.9,184.8-62.7c0.8-0.3,1.3-1,1.3-1.8V139c0-0.8,0.4-1.4,1.1-1.7l1.9-0.8
			c0.9-0.4,1.4-1.4,1-2.4l-1.5-4.3c-0.3-0.8,0-1.7,0.8-2.2l0.8-0.5c0.8-0.5,1.1-1.6,0.7-2.4L247.5,94c-0.7-1.3-2.5-1.4-3.3-0.2
			l-10.5,16.7c-0.8,1.3-2.7,1.2-3.3-0.2l0,0c-0.4-0.9-1.5-1.3-2.4-1L69,172.4c-0.7,0.3-1.1,0.9-1.2,1.6l-0.9,9.5
			c-0.1,0.8-0.7,1.5-1.4,1.7l-4,1c-0.7,0.2-1.4-0.1-1.9-0.6l-1.4-1.7c-0.5-0.6-1.3-0.8-2.1-0.5l-36.3,13.4c-1,0.4-1.5,1.5-1.1,2.4
			l0.7,1.9c0.4,1-0.1,2.1-1.2,2.5l-13.5,4.5c-1.2,0.4-1.7,1.9-0.9,3l7.1,8.9c0.1,0.2,0.2,0.3,0.3,0.5L22.9,253
			c0.4,1,1.4,1.5,2.4,1.1l36.4-13.3c1-0.3,1.5-1.4,1.1-2.4C59,227,60,216.1,66.2,210.6C67.6,209.6,69.4,208.4,71.9,207.6z"/>
		<path class="st1" d="M62.4,185.2c0,0.8-0.7,1.2-1.4,1.5c4.6,3.1,1.4,10.9-4.1,9.7c-0.1,0.7-0.4,1.3-0.7,1.9
			C63.7,200.2,68.6,189.8,62.4,185.2z"/>
		<path class="st2" d="M79.2,246.6"/>
		<polyline class="st3" points="59.9,186.6 50.8,212.1 33.5,218.3 18.4,203.6 		"/>
		<path class="st0" d="M238.3,140.3l-43.4,15.4c-1.3,0.5-2.8-0.2-3.2-1.5l-5-14c-0.5-1.3,0.2-2.8,1.5-3.2l43.4-15.4
			c1.3-0.5,2.8,0.2,3.2,1.5l5,14C240.3,138.4,239.6,139.8,238.3,140.3z"/>
		<path class="st4" d="M33.8,227.9c-0.6,2.2-1.3,6.4-0.2,11.5c0.9,3.9,2.6,6.8,3.8,8.5c0,0,20.8-6,20.8-9.4S51,222.4,51,222.4
			L33.8,227.9z"/>
	</g>
	<g id="Gun1">
		<polygon class="st0" points="40.9,95.2 48.5,98.5 34.4,133.2 27,130.3 		"/>
		<path class="st0" d="M269.1,202.1l-14.1-7.3L52.6,103.3c-5.2-2.4-5.2-2.4-5.2-2.4l-12,30.7l36.5,12.2l13-18.2L231.3,206l18.9,43.3
			l0,0c12,4,11.5-11.8,12.4-19.2C263.9,218.9,266.4,209.5,269.1,202.1z M251.8,238.7l-1.2-2.6l-10.4-27.3l14.1-6.7l3,0.2
			L251.8,238.7z"/>
		<polygon class="st0" points="29.8,123.3 6.4,113.9 9.9,106.2 33.1,114.9 		"/>
		<path class="st5" d="M31.6,119"/>
		<path class="st6" d="M12.4,115.1"/>
		<path class="st6" d="M15.8,107.5"/>
		<path class="st6" d="M23.8,119.5"/>
		<path class="st6" d="M27,111.8"/>
		<polygon class="st0" points="35.2,109.5 12.4,100.3 15.9,92.6 38.6,101.1 		"/>
		<path class="st5" d="M17.9,97.9"/>
		<path class="st6" d="M18.4,102.2"/>
		<path class="st6" d="M21.8,94.7"/>
		<path class="st6" d="M29.8,106.7"/>
		<path class="st2" d="M211.5,185c9.3,4.5,18.6,9,27.9,13.6"/>
		<path class="st6" d="M33.1,99"/>
	</g>
	<g id="Ebene_4">
	</g>
	<g id="Schild">
		<path id="Frame" class="st1" d="M68.9,64.2c1.4,29-2.3,94.3,7.2,121.4l6.5,20.3l8.9,18.5l13.6,19.4c9.2,13.5,26.7,28.5,39.9,38
			c40.3-30.5,63.1-64.1,72-114.3c4.1-21.3,1.3-79.8,2.1-102.2c-6.2-0.5-19.4-1.4-25.5-1.7c-16.4-2.5-35.3-9.4-48.9-18.9
			c-14.4,9.9-32.6,15.4-49.5,19.2C89.1,64.5,75.1,64.4,68.9,64.2z"/>
		<path id="Mitte" class="st7" d="M73.2,69.9c1.3,27.3-2.2,88.9,6.8,114.4l6.1,19.1l8.4,17.4l12.8,18.2
			c8.7,12.7,25.2,26.8,37.6,35.8c38-28.8,59.5-60.4,67.9-107.7c3.9-20.1,1.3-75.3,2-96.3c-5.9-0.4-18.2-1.3-24-1.6
			c-15.5-2.4-33.3-8.9-46.1-17.8c-13.6,9.4-30.8,14.5-46.7,18.1C92.3,70.1,79,70,73.2,69.9z"/>
	</g>
	<g id="Feder">
		<g id="Einzelne_Striche">
			<path class="st8" d="M115.3,167.3c0.5,1,1.2,2.3,2.2,3.4c1.5,1.9,3.1,3.1,4.3,3.9"/>
			<path class="st9" d="M113.4,161.6c1.3,1.2,3,2.7,5.1,4.1c2.1,1.4,4.2,2.6,5.9,3.4"/>
			<path class="st9" d="M113.9,169.1c0.5,0.6,1.1,1.2,1.6,1.8c2,2.1,4,3.9,6,5.3"/>
			<path class="st9" d="M110,172.6c0.9,1.3,2,2.7,3.3,4c1.9,2.1,3.7,3.8,5.4,5.1"/>
			<path class="st9" d="M114.7,174.8c0.4,0.6,0.9,1.3,1.5,2c1.9,2,3.8,3.2,5.3,4"/>
			<path class="st9" d="M110,181.1c0.9,0.8,2.6,2.4,5.2,3.2c3.1,1,5.8,0.4,6.9,0.2"/>
			<path class="st8" d="M115.4,188.2c0.7,0.1,1.5-0.1,2.3-0.3c3.8-1.1,5.5-4.7,6-5.7"/>
			<path class="st8" d="M118.6,159c0.1,0.8,0.2,2.2,1.1,3.8c1.6,2.6,4.2,3.4,4.9,3.4"/>
			<path class="st8" d="M115.8,215.1c2,1.8,4.9,1.5,6.4-0.1c1.1-1.3,1.3-3.4,0.4-5.1"/>
		</g>
		<path class="st10" d="M202.7,72.4c-7.5,6.7-7.7,10.6-22.5,20.9c-13.6,9.8-26.9,10.3-41.2,23.1c-2.3,6.5-6.6,12.5-6.3,19.7
			c-4.2-1.1,3.1-14.2,4.5-18.2c-14,8.4-18.3,36.6-16.5,46.6c-2.1,16.1-9.6,23.7,6.1,22.3c6.5-0.9,8.6-5.4,18.7-16.1
			c11.8-12.5,16.1-13.9,18.5-21.7C159.1,115.7,215.2,97.9,202.7,72.4z"/>
		<path class="st11" d="M114.8,204.2c-4.1,0.7-7.3,1.8-9.5,2.8c-2.9,1.4-8.4,3.7-8.2,6.8c0,0.1,0,0.4,0.2,0.9
			c1.9,4,17.5,4.3,23.9-3.5c0.6-0.7,1.6-2.2,2.9-7.1c1.3-4.9,2.6-12.3,1.7-22.1"/>
		<path class="st11" d="M123.9,183.5c-1.3,3.5-2.5,8-3.2,13.5c-0.6,5.9-0.3,11,0.1,14.8"/>
		<path class="st12" d="M132.1,197.7c23.4-6.4,75.4-13.5,74.3-22.5c-1.1-9-31.4-8.7-51.4,0.3c-26.5,13.7,36.2,11.7,22.1-0.7"/>
		<g id="Ebene_9">
			<path class="st13" d="M127.1,177.1c1.6-9.1,5.4-23.4,15.2-38.5c12.1-19,27.3-29.5,35.9-34.3"/>
		</g>
	</g>
</g>
</svg>
