<?xml version="1.0" encoding="utf-8"?>
<!-- Generator: Adobe Illustrator 27.4.0, SVG Export Plug-In . SVG Version: 6.00 Build 0)  -->
<svg version="1.1" id="Ebene_1" xmlns="http://www.w3.org/2000/svg" xmlns:xlink="http://www.w3.org/1999/xlink" x="0px" y="0px"
	 viewBox="0 0 30 30" style="enable-background:new 0 0 30 30;" xml:space="preserve">
<style type="text/css">
	.st0{fill:#FFFFFF;}
</style>
<path class="st0" d="M25.7,6.3c-0.2-0.2-1.8-1.8-2-2c-0.4-0.4-1-0.4-1.4,0c-0.2,0.2-17.8,17.8-18,18c-0.4,0.4-0.4,1,0,1.4
	c0.3,0.3,1.7,1.7,2,2c0.4,0.4,1,0.4,1.4,0c0.2-0.2,17.8-17.8,18-18C26.1,7.3,26.1,6.7,25.7,6.3z"/>
<path class="st0" d="M23.7,25.7c0.2-0.2,1.8-1.8,2-2c0.4-0.4,0.4-1,0-1.4c-0.2-0.2-17.8-17.8-18-18c-0.4-0.4-1-0.4-1.4,0
	C6,4.6,4.6,6,4.3,6.3c-0.4,0.4-0.4,1,0,1.4c0.2,0.2,17.8,17.8,18,18C22.7,26.1,23.3,26.1,23.7,25.7z"/>
</svg>
