<?xml version="1.0" encoding="utf-8"?>
<!-- Generator: Adobe Illustrator 28.0.0, SVG Export Plug-In . SVG Version: 6.00 Build 0)  -->
<svg version="1.1" xmlns="http://www.w3.org/2000/svg" xmlns:xlink="http://www.w3.org/1999/xlink" x="0px" y="0px"
	 viewBox="0 0 362.5 310" style="enable-background:new 0 0 362.5 310;" xml:space="preserve">
<style type="text/css">
	.st0{stroke:#FFFFFF;stroke-width:3;stroke-miterlimit:10;}
	.st1{fill:#FFFFFF;}
	.st2{fill:none;stroke:#FFFFFF;stroke-width:3;stroke-miterlimit:10;}
	.st3{fill:none;stroke:#FFFFFF;stroke-width:2;stroke-miterlimit:10;}
	.st4{fill:none;stroke:#FFFFFF;stroke-miterlimit:10;}
	.st5{stroke:#FFFFFF;stroke-width:1.5;stroke-miterlimit:10;}
	.st6{stroke:#FFFFFF;stroke-miterlimit:10;}
	.st7{fill:none;stroke:#FFFFFF;stroke-width:1.5;stroke-miterlimit:10;}
	.st8{fill:none;stroke:#3C3C3B;stroke-width:2;stroke-miterlimit:10;}
</style>
<g id="Ebene_10">
</g>
<g id="Schwert1">
	<polyline class="st0" points="111.3,63.7 246.1,264.2 252.2,276 257.1,289.1 258.4,295.4 247.1,288.6 239.3,280.7 233.1,273.6 
		91.1,76.1 	"/>
	<polygon class="st0" points="91.1,68.2 60.2,21.1 71.1,13.4 103,60.8 	"/>
	<path class="st0" d="M121,62.2c-4.7,1.1-12.1,3.3-19.8,8.5c-6.5,4.3-10.8,9.2-13.6,12.8l-9.1-4.8c3.2-4.3,8.7-10.7,17.2-16.3
		c8.5-5.6,16.5-8.2,21.8-9.4L121,62.2z"/>
	<path class="st0" d="M64.9,4.4c2.6,0.5,3.4-0.9,5.5-0.2c2,0.7,3.5,2.8,3.8,4.4c1.1,6.8-17.4,17.7-22.6,13.8c-1.3-1-2.3-3.2-2.2-5.3
		c0.1-2,1.2-2.2,1.7-4.8c0.6-3.1-0.7-3.8,0.1-6c0.9-2.4,3.3-3.5,3.9-3.8c0.7-0.3,2.3-1.1,4.2-0.8C62.1,1.9,62.2,3.8,64.9,4.4z"/>
</g>
<g id="Schwert2">
	<path class="st0" d="M263.6,79.6l-6.2,8.6l-112.3,169l-8.8,10.6L96,298.1l37.3-50.9l88.6-152.9l2.9,4.2l10.7-17.3
		c0,0,4-7.5,8.1-10.5C247.7,67.7,263.6,79.6,263.6,79.6z"/>
	<path class="st1" d="M220.1,109.7l-5.9-3.7c2.3-3.7,4.4-7.1,6.4-10.2c5.6-9,9.7-15.5,11.7-19c0.7-1.2,2.8-4.8,6.7-8.3
		c1.9-1.8,3.2-2.9,5.1-3.7c5-2,9.4,1,13.3,3.7c2.1,1.4,4.3,2.9,6.2,3.4c5.3,1.3,25.7-13.7,25.7-13.7s1.3-0.5,0.9,0.9
		c-0.4,1.4-8.6,16.3-25.9,22.2c-3.2-0.8-8.3-5.4-10.8-7.1c-3.2-2.2-5.3-3.5-6.8-2.9c-0.6,0.2-1.4,0.9-2.9,2.3
		c-3.1,2.8-4.7,5.6-5.3,6.6c-2.1,3.6-6.2,10.2-11.9,19.2C224.5,102.6,222.4,106,220.1,109.7z"/>
	<path class="st0" d="M246.8,65.2c1.8-2.2,4.5-5.8,7.4-10.4c8.7-13.7,11-21.5,16-29.8c3.9-6.6,20.2-23.5,23-23.5s9.4,14.3,8.7,15.3
		S281.1,30.2,277.2,36c-2.8,4.1-4.1,7.4-10.9,19.3c-3.6,6.2-6.6,11.3-8.7,14.6"/>
	<path class="st0" d="M280.2,12.9c3.2,3.8,6.3,7.5,9.5,11.3"/>
</g>
<g id="Gun2">
	<path class="st0" d="M2.3,243.3l36-11.8l20,45.4l-28,10.3c-0.5,1.5-1.8,4.3-4.7,6.3c-0.8,0.5-1.5,0.9-2.2,1.2
		c-1.5-6.7-3.6-14.3-6.7-22.3C12.3,260.9,7.1,251.1,2.3,243.3z"/>
	<polygon class="st0" points="352.8,113.6 360.3,127.1 340.1,134.1 314,139.1 314,133.9 326.5,124.9 	"/>
	<path class="st0" d="M83.4,238.2c76.1-24.9,152.1-49.8,228.2-74.6c0.8-0.3,1.3-1,1.3-1.8v-4.1c0-0.8,0.4-1.4,1.1-1.7l1.9-0.8
		c0.9-0.4,1.4-1.4,1-2.4l-1.5-4.3c-0.3-0.8,0-1.7,0.8-2.2l0.8-0.5c0.8-0.5,1.1-1.6,0.7-2.4l-15.3-30.7c-0.7-1.3-2.5-1.4-3.3-0.2
		l-10.5,16.7c-0.8,1.3-2.7,1.2-3.3-0.2v0c-0.4-0.9-1.5-1.3-2.4-1L101.9,198c-0.7,0.3-1.1,0.9-1.2,1.6l-0.9,9.5
		c-0.1,0.8-0.7,1.5-1.4,1.7l-25.5,6.1c-0.7,0.2-1.4-0.1-1.9-0.6l-1.4-1.7c-0.5-0.6-1.3-0.8-2.1-0.5l-36.3,13.4
		c-1,0.4-1.5,1.5-1.1,2.4l0.7,1.9c0.4,1-0.1,2.1-1.2,2.5l-13.5,4.5c-1.2,0.4-1.7,1.9-0.9,3l7.1,8.9c0.1,0.2,0.2,0.3,0.3,0.5
		l11.7,32.5c0.4,1,1.4,1.5,2.4,1.1l36.4-13.3c1-0.3,1.5-1.4,1.1-2.4c-3.8-11.4-2.8-22.3,3.4-27.8C79.1,240.2,80.9,239,83.4,238.2z"
		/>
	<path class="st1" d="M74.3,215.8c0,0.8-0.7,1.2-1.4,1.5c4.6,3.1,1.4,10.9-4.1,9.7c-0.1,0.7-0.4,1.3-0.7,1.9
		C75.6,230.8,80.5,220.3,74.3,215.8z"/>
	<path class="st0" d="M91.1,277.1"/>
	<polyline class="st2" points="71.8,217.1 62.7,242.6 45.4,248.9 30.3,234.1 	"/>
	<path class="st3" d="M67.2,252.1c0.1-2,0.6-6.5,3.6-10.9c2.6-3.8,5.8-5.8,6.7-6.3c1.7-1,3.2-1.5,4.3-1.8l29.7-9.3"/>
	<path class="st3" d="M28.2,252.3c1.2,3.7,2.6,7.6,4.2,11.7c1.7,4.2,3.4,8.2,5.1,11.8"/>
	<path class="st3" d="M45.7,258.5c-0.6,2.2-1.3,6.4-0.2,11.5c0.9,3.9,2.6,6.8,3.8,8.5c0,0,20.8-6,20.8-9.4s-7.2-16.2-7.2-16.2
		L45.7,258.5z"/>
	<circle class="st4" cx="52.2" cy="260.9" r="1.6"/>
	<circle class="st4" cx="56.3" cy="259.7" r="1.6"/>
	<circle class="st4" cx="60.5" cy="258.1" r="1.6"/>
	<path class="st0" d="M339.2,118.3c3.7,7.7,3.4,7,6.4,13.2"/>
	<polygon class="st0" points="211.9,187.9 204.1,167.9 281.4,137.4 290.9,161.3 	"/>
	<path class="st0" d="M273.5,140.5"/>
	<path class="st0" d="M267,143.1c2.9,7.8,5.9,15.5,8.8,23.3"/>
	<path class="st0" d="M314,137.4c-10.8,4.3-51.1,19.6-62.5,24.1"/>
	<path class="st3" d="M300,138.2l7.6-4.5c0.1-0.1,0.2-0.3,0.1-0.4l-7.3-14c-0.1-0.2-0.4-0.2-0.5,0l-5.4,8.9L300,138.2z"/>
	<path class="st3" d="M298.8,161.3c6.9-0.1,8.8-1.3,9.2-2.5c0.4-1.5-1.4-2.9-0.7-4.3c0.8-1.6,3.6-0.7,4.5-2.2
		c1.1-1.9-2.7-5.1-1.7-7.3c0.5-1.1,2-1.5,3-1.7"/>
</g>
<g id="Gun1">
	<path class="st2" d="M265.5,231.4c-10.3-5.9-20.5-11.8-30.8-17.7"/>
	<path class="st0" d="M50.3,151.8c3.4-6.4,6.8-13.7,9.9-21.8c1.9-5,3.5-9.8,4.9-14.4l-6.6-3c-2.2,5.9-4.9,12.2-8,18.9
		c-2.9,6-5.8,11.4-8.8,16.4L50.3,151.8z"/>
	
		<ellipse transform="matrix(0.3682 -0.9297 0.9297 0.3682 -87.1583 146.8229)" class="st0" cx="64.5" cy="137.5" rx="25.2" ry="4.8"/>
	<polygon class="st0" points="74.3,120.7 81.9,124 67.8,158.7 60.4,155.8 	"/>
	<path class="st0" d="M338.1,240.7l-49.7-20.4L86,128.8c-5.2-2.4-5.2-2.4-5.2-2.4l-12,30.7l36.5,12.2l13-18.2l162.9,72.2l-16.5,8.2
		l18.9,43.3l0,0c12.2,4.1,24.3,8.3,36.5,12.4c0.4,0.6,1.7,2.2,3.8,2.8c3.6,1.1,6.7-1.1,7-1.3c-0.3-5.8-0.2-12.6,0.7-20
		C332.9,257.5,335.4,248.1,338.1,240.7z M285.2,264.2l-1.2-2.6l-10.4-27.3l14.1-6.7l3,0.2L285.2,264.2z"/>
	<polygon class="st0" points="302.2,236.3 290.6,267.3 306.9,275 318.5,241.5 	"/>
	<path class="st0" d="M297.8,246.9c6.3,2.5,10.9,4.3,17.2,6.8"/>
	<path class="st0" d="M293.8,258.1c5.8,2.3,11.5,4.6,17.2,6.8"/>
	<polygon class="st0" points="44.3,140.4 3,123.5 6.5,115.8 48.1,132.3 	"/>
	<line class="st5" x1="45.3" y1="136.2" x2="5.8" y2="120.1"/>
	<line class="st6" x1="29.5" y1="124.7" x2="26.1" y2="132.3"/>
	<line class="st6" x1="40.7" y1="129" x2="37.5" y2="136.7"/>
	<polygon class="st0" points="50.3,127.5 9.1,110.6 12.6,102.9 54.2,119.4 	"/>
	<line class="st5" x1="51.3" y1="123.4" x2="11.9" y2="107.3"/>
	<line class="st6" x1="35.5" y1="111.9" x2="32.1" y2="119.4"/>
	<line class="st6" x1="46.8" y1="116.2" x2="43.5" y2="123.9"/>
</g>
<g id="Schild">
	<path id="Frame" class="st1" d="M102.3,89.7c1.4,29-2.3,94.3,7.2,121.4c0,0,6.5,20.3,6.5,20.3l8.9,18.5l13.6,19.4
		c9.2,13.5,26.7,28.5,39.9,38c40.3-30.5,63.1-64.1,72-114.3c4.1-21.3,1.3-79.8,2.1-102.2c-6.2-0.5-19.4-1.4-25.5-1.7
		c-16.4-2.5-35.3-9.4-48.9-18.9c-14.4,9.9-32.6,15.4-49.5,19.2C122.5,90,108.5,89.9,102.3,89.7z"/>
	<path id="Mitte" d="M106.6,95.4c1.3,27.3-2.2,88.9,6.8,114.4c0,0,6.1,19.1,6.1,19.1l8.4,17.4l12.8,18.2
		c8.7,12.7,25.2,26.8,37.6,35.8c38-28.8,59.5-60.4,67.9-107.7c3.9-20.1,1.3-75.3,2-96.3c-5.9-0.4-18.2-1.3-24-1.6
		c-15.5-2.4-33.3-8.9-46.1-17.8c-13.6,9.4-30.8,14.5-46.7,18.1C125.7,95.6,112.4,95.5,106.6,95.4z"/>
</g>
<g id="Feder">
	<g id="Einzelne_Striche">
		<path class="st4" d="M150.9,191.8c0.4,0.9,0.9,2.1,1.7,3.2c1.2,1.8,2.5,3,3.5,3.8"/>
		<path class="st3" d="M149.6,186.6c1.1,1.2,2.5,2.6,4.2,4c1.8,1.4,3.5,2.6,5,3.4"/>
		<path class="st3" d="M149.5,193.3c0.4,0.6,0.9,1.1,1.3,1.7c1.6,2,3.3,3.7,4.9,5.1"/>
		<path class="st3" d="M145.8,196.1c0.7,1.2,1.6,2.5,2.6,3.8c1.5,2,3,3.6,4.4,4.9"/>
		<path class="st3" d="M149.8,198.4c0.3,0.6,0.7,1.2,1.2,1.9c1.5,1.9,3.1,3.1,4.4,3.9"/>
		<path class="st3" d="M145.2,203.6c0.7,0.8,2.1,2.3,4.4,3.2c2.7,1.1,5.1,0.8,6.1,0.7"/>
		<path class="st4" d="M149.5,210.3c0.6,0.1,1.3,0,2.1-0.1c3.4-0.7,5.2-3.8,5.7-4.6"/>
		<path class="st4" d="M154.4,184.7c0,0.7,0,2,0.7,3.4c1.2,2.4,3.5,3.3,4.1,3.4"/>
		<path class="st4" d="M147.9,234.1c1.6,1.7,4.2,1.7,5.7,0.4c1.1-1.1,1.4-2.9,0.7-4.5"/>
	</g>
	<path class="st1" d="M235.1,114.2c-7.1,5.4-7.6,8.8-21.4,16.9c-12.7,7.7-24.5,7.2-38.1,17.5c-2.5,5.6-6.7,10.6-7,17
		c-3.6-1.3,3.8-12.3,5.3-15.8c-13,6.4-18.8,31.1-18,40c-3,14.1-10.2,20.3,3.8,20.2c5.8-0.3,8-4.2,17.7-12.9
		c11.3-10.2,15.2-11.1,17.9-17.9C193.4,149.3,244.3,137.6,235.1,114.2z"/>
	<path class="st7" d="M147.8,224.4c-3.7,0.3-6.6,1.1-8.6,1.8c-2.7,1-7.7,2.7-7.7,5.4c0,0.1,0,0.4,0.1,0.8c1.4,3.7,15.2,5.1,21.4-1.4
		c0.6-0.6,1.6-1.8,3.1-6.1c1.5-4.2,3.2-10.7,3.1-19.4"/>
	<path class="st7" d="M157.3,206.8c-1.4,3-2.8,6.9-3.8,11.7c-1,5.2-1.1,9.7-1,13.1"/>
	<path class="st7" d="M167,219.3c21.5-5.9,69.3-12.4,68.3-20.7c-1-8.3-28.9-8-47.3,0.3c-24.4,12.6,33.3,10.8,20.3-0.6"/>
	<g id="Ebene_9">
		<path class="st8" d="M160.6,201.3c2.1-7.9,6.5-20.3,16.2-33c12.1-15.9,26.3-24.1,34.2-27.8"/>
	</g>
</g>
</svg>
