<?xml version="1.0" encoding="utf-8"?>
<!-- Generator: Adobe Illustrator 27.4.0, SVG Export Plug-In . SVG Version: 6.00 Build 0)  -->
<svg version="1.1" id="Ebene_1" xmlns="http://www.w3.org/2000/svg" xmlns:xlink="http://www.w3.org/1999/xlink" x="0px" y="0px"
	 viewBox="0 0 357 357" style="enable-background:new 0 0 357 357;" xml:space="preserve">
<style type="text/css">
	.st0{fill-rule:evenodd;clip-rule:evenodd;fill:#231F20;}
	.st1{fill-rule:evenodd;clip-rule:evenodd;fill:#818181;}
	.st2{fill-rule:evenodd;clip-rule:evenodd;fill:#9D9D9D;}
	.st3{fill-rule:evenodd;clip-rule:evenodd;fill:#FEFEFE;}
</style>
<path class="st0" d="M93.4,356.7c-3.2-0.4-6.4-1.1-9.8-2.2c-6.2-2-11.3-4.8-15.1-6.9c-8.4-4.8-16.9-10.7-26-18.2
	c-4-3.3-7.9-6.7-11.6-10.2l-3.2-3c-2.2-2-4.1-4.1-5.6-6.5c-2.9-4.3-5.2-10.1-5.5-17.6c-0.2-2.5-0.3-4.9-0.4-7.4
	c-0.1-5.4,0.3-10.9,1.1-16.4c1.6-11.3,5.2-21.5,8.1-29.2c0.2-0.6,0.5-1.3,0.7-1.9c-0.8-2.1-1.6-4.2-2.3-6.3
	c-4.2-12.1-6.9-24.8-8.2-37.6c-1.3-13.5-0.9-27.1,1.1-40.5c0.4-2.8,0.9-5.6,1.5-8.4c-5.2-7.6-11.9-18.4-16-31.3l-0.1-0.2
	c-0.9-2.7-3-9.2-1.8-17.6c0.4-3.1,1.2-6.2,2.3-9.5c2.1-6.1,4.8-11.2,6.9-14.9c4.8-8.3,10.7-16.7,18.1-25.8c3.3-4,6.7-7.8,10.1-11.4
	l3-3.2c1.6-1.8,3.3-3.3,5.2-4.7c4.4-3.3,10.6-6.1,18.9-6.5c2.7-0.2,5.5-0.4,8.3-0.4h0.2c5.6,0,11.3,0.5,17.1,1.4
	c8.7,1.4,16.6,3.8,23.7,6.4c4.7-2,9.5-3.8,14.4-5.4c12.1-3.9,24.8-6.4,37.5-7.3c13.4-1,27-0.4,40.1,1.9c3.1,0.5,6.1,1.1,9.2,1.8
	c10.3-7.1,19.9-12,29.7-15.2l0.2-0.1c2.3-0.8,7.1-2.5,13.4-2.5c1.4,0,2.8,0.1,4.1,0.2c3.2,0.4,6.4,1.1,9.8,2.2
	c6.2,2,11.3,4.8,15.1,6.9c8.4,4.7,16.9,10.7,26,18.2c4,3.3,7.9,6.7,11.6,10.2l3.2,3c1.6,1.4,3,2.9,4.2,4.5c4,5.1,7.1,12.2,7.1,22.4
	c0.2,3.6,0.2,7.3,0,11c-0.4,8.1-1.6,15.7-3.6,22.8c-1.5,5.2-3.2,10.5-5.2,15.7c3.9,9.8,6.8,20,8.7,30.4c4,21.7,3.6,44.1-1.2,65.6
	c2.9,4.3,5.4,8.2,7.6,12.1c3.8,6.7,6.8,13.5,8.9,20.4c0.8,2.5,2.9,9.3,1.5,17.9c-0.5,3-1.3,6-2.4,9.2c-4,11.2-10.1,20.4-15.6,28
	c-6,8.5-12.7,16.5-19.7,23.9l-2.6,2.7c-1.6,1.8-3.4,3.4-5.3,4.8c-4.4,3.3-10.5,6-18.8,6.4c-2.7,0.2-5.5,0.4-8.3,0.4h-0.2
	c-5.9,0-11.9-0.5-18-1.5c-9.8-1.6-18.7-4.6-26.5-7.7c-4.2,1.7-8.5,3.2-12.8,4.5c-12.4,3.8-25.2,6-38.1,6.8
	c-13.4,0.8-27.1-0.1-40.2-2.6c-1.6-0.3-3.2-0.6-4.8-1c-11.4,8.1-21.6,13.5-32.1,16.9l-0.2,0.1c-2.3,0.8-7.1,2.5-13.4,2.5
	C96.1,356.9,94.7,356.9,93.4,356.7z"/>
<path class="st1" d="M123.7,194.1l1.6,62.1l-15.4-12.6c-17.2,27.9-22.5,55-14.5,74.9l2.9,7.1l-7-3.1c-16.1-7.1-30.4-17-42.7-29.5
	l-0.7-0.8l-0.1-1.1c-0.9-7.7-0.4-16,1.5-24.6l0-0.1c2.8-10.7,7-21.6,12.4-32.4c3.4-6.8,7.3-13.6,11.7-20.2l-13.4-11L123.7,194.1z"/>
<path class="st1" d="M232.5,162.8l-1.6-62.1l15.4,12.6c17.2-27.9,22.5-55,14.5-74.9l-2.9-7.1l7,3.1c16.1,7.1,30.4,17,42.7,29.5
	l0.7,0.8l0.1,1.1c0.9,7.7,0.4,16-1.5,24.6l0,0.1c-2.8,10.7-7,21.6-12.4,32.4c-3.4,6.8-7.3,13.5-11.7,20.2l13.4,11L232.5,162.8z"/>
<path class="st1" d="M194.3,231.4l62.1-1.6l-12.6,15.4c27.8,17.2,55,22.5,74.8,14.5l7.1-2.9l-3.1,7c-7.1,16.1-17,30.5-29.5,42.7
	l-0.8,0.7l-1.1,0.1c-7.7,0.9-16,0.4-24.6-1.5l-0.1,0c-10.7-2.8-21.6-7-32.4-12.4c-6.7-3.4-13.5-7.3-20.2-11.7l-11,13.4L194.3,231.4z
	"/>
<path class="st1" d="M162.7,126.5l-62.1,1.6l12.6-15.4c-27.8-17.2-55-22.5-74.8-14.5l-7.1,2.9l3.1-7c7.1-16.1,17-30.5,29.5-42.7
	l0.8-0.7l1.1-0.1c7.7-0.9,16-0.4,24.6,1.5l0.1,0c10.7,2.8,21.6,7,32.4,12.4c6.7,3.4,13.5,7.3,20.2,11.7l11-13.4L162.7,126.5z"/>
<path class="st2" d="M311.4,177.5c0,73.4-59.4,132.8-132.7,132.8C105.4,310.3,46,250.8,46,177.5c0-73.4,59.4-132.8,132.7-132.8
	C252,44.7,311.4,104.1,311.4,177.5z"/>
<path class="st3" d="M130.1,130.7c-7.7-3.5-13.3-7-19.1-11.2c-8.9-6.1-16.9-13-23.8-20.1c-16.6-17-25.4-34.4-22.9-48.5l-5,5.2
	c-12.1,12.7-28.2,35-28.3,44.7l0.3,1c2.1,7.4,5.8,14.9,10.9,22.2l0.1,0.1c6.5,10.6,19.5,27.8,65.6,48.1l-8.2,15.3l62.2-16.7
	l-22.4-57.7L130.1,130.7z"/>
<path class="st3" d="M226.9,227.3c7.7,3.5,13.3,7,19.1,11.2c8.9,6.1,16.9,13,23.8,20.1c16.7,17,25.4,34.4,22.9,48.5l5-5.2
	c12.1-12.7,28.2-35,28.3-44.7l-0.3-1c-2.1-7.4-5.8-14.9-10.9-22.2l-0.1-0.1c-6.5-10.6-19.5-27.8-65.6-48.1l8.2-15.3l-62.2,16.7
	l22.4,57.7L226.9,227.3z"/>
<path class="st3" d="M228.3,130.2c3.5-7.7,7-13.3,11.2-19.1c6.1-8.9,13-17,20.1-23.8c17-16.7,34.3-25.4,48.5-23l-5.2-5
	c-12.7-12.1-35-28.2-44.7-28.3l-1,0.3c-7.4,2.2-14.9,5.8-22.2,10.9l-0.1,0.1c-10.6,6.5-27.8,19.5-48.1,65.7l-15.3-8.2l16.7,62.3
	l57.6-22.4L228.3,130.2z"/>
<path class="st3" d="M127.9,226.7c-3.5,7.7-7,13.3-11.2,19.1c-6.1,8.9-13,17-20.1,23.8c-17,16.7-34.3,25.4-48.5,23l5.2,5
	c12.7,12.1,35,28.2,44.7,28.3l1-0.3c7.4-2.2,14.9-5.8,22.2-10.9l0.1-0.1c10.6-6.5,27.8-19.5,48.1-65.7l15.3,8.2L168,194.9
	l-57.6,22.4L127.9,226.7z"/>
</svg>
