<?xml version="1.0" encoding="utf-8"?>
<!-- Generator: Adobe Illustrator 27.4.0, SVG Export Plug-In . SVG Version: 6.00 Build 0)  -->
<svg version="1.1" id="Ebene_1" xmlns="http://www.w3.org/2000/svg" xmlns:xlink="http://www.w3.org/1999/xlink" x="0px" y="0px"
	 viewBox="0 0 24 24" style="enable-background:new 0 0 24 24;" xml:space="preserve">
<style type="text/css">
	.st0{fill:#FFFFFF;}
	.st1{fill:#1D1D1B;}
	.st2{fill-rule:evenodd;clip-rule:evenodd;fill:#231F20;}
	.st3{fill-rule:evenodd;clip-rule:evenodd;fill:#818181;}
	.st4{fill-rule:evenodd;clip-rule:evenodd;fill:#9D9D9D;}
	.st5{fill-rule:evenodd;clip-rule:evenodd;fill:#FEFEFE;}
</style>
<path class="st0" d="M11.5,18c5.9,0.1,9.1-7.4,4.8-11.5c-2.5-2.6-7.1-2.6-9.6,0C2.5,10.5,5.6,18.1,11.5,18z M11.5,19.9
	C2.1,19.8-0.5,7,8.1,3.2c8.2-3.5,15.8,6.4,10.2,13.4l3.2,3.2c0.3,0.3,0.6,0.6,0,1.2l-0.1,0.1c-0.6,0.5-0.9,0.3-1.2,0L16.9,18l0,0
	C15.4,19.2,13.5,19.9,11.5,19.9z"/>
<path class="st1" d="M24.7,14.8"/>
<path class="st2" d="M9.1,16.7c-0.1,0-0.2,0-0.3-0.1c-0.2-0.1-0.3-0.1-0.5-0.2c-0.3-0.1-0.5-0.3-0.8-0.6c-0.1-0.1-0.2-0.2-0.3-0.3
	l-0.1-0.1C7,15.4,7,15.3,6.9,15.2c-0.1-0.1-0.2-0.3-0.2-0.5c0-0.1,0-0.1,0-0.2c0-0.2,0-0.3,0-0.5c0-0.3,0.2-0.7,0.2-0.9
	c0,0,0,0,0-0.1C7,13,7,12.9,7,12.9c-0.1-0.4-0.2-0.7-0.2-1.1c0-0.4,0-0.8,0-1.2c0-0.1,0-0.2,0-0.3C6.6,10,6.4,9.7,6.3,9.3l0,0
	c0-0.1-0.1-0.3-0.1-0.5c0-0.1,0-0.2,0.1-0.3C6.4,8.3,6.5,8.1,6.5,8c0.1-0.3,0.3-0.5,0.5-0.8C7.2,7.1,7.3,7,7.4,6.9l0.1-0.1
	c0-0.1,0.1-0.1,0.2-0.1c0.1-0.1,0.3-0.2,0.6-0.2c0.1,0,0.2,0,0.3,0h0c0.2,0,0.3,0,0.5,0c0.3,0,0.5,0.1,0.7,0.2
	c0.1-0.1,0.3-0.1,0.4-0.2c0.4-0.1,0.7-0.2,1.1-0.2c0.4,0,0.8,0,1.2,0.1c0.1,0,0.2,0,0.3,0.1c0.3-0.2,0.6-0.4,0.9-0.5l0,0
	c0.1,0,0.2-0.1,0.4-0.1c0,0,0.1,0,0.1,0c0.1,0,0.2,0,0.3,0.1c0.2,0.1,0.3,0.1,0.5,0.2c0.3,0.1,0.5,0.3,0.8,0.6
	C15.8,6.8,16,6.9,16.1,7l0.1,0.1c0,0,0.1,0.1,0.1,0.1c0.1,0.2,0.2,0.4,0.2,0.7c0,0.1,0,0.2,0,0.3c0,0.2,0,0.5-0.1,0.7
	c0,0.2-0.1,0.3-0.2,0.5c0.1,0.3,0.2,0.6,0.3,0.9c0.1,0.7,0.1,1.3,0,2c0.1,0.1,0.2,0.2,0.2,0.4c0.1,0.2,0.2,0.4,0.3,0.6
	c0,0.1,0.1,0.3,0,0.5c0,0.1,0,0.2-0.1,0.3c-0.1,0.3-0.3,0.6-0.5,0.8c-0.2,0.3-0.4,0.5-0.6,0.7l-0.1,0.1c0,0.1-0.1,0.1-0.2,0.1
	c-0.1,0.1-0.3,0.2-0.6,0.2c-0.1,0-0.2,0-0.3,0h0c-0.2,0-0.4,0-0.5,0c-0.3,0-0.6-0.1-0.8-0.2c-0.1,0.1-0.3,0.1-0.4,0.1
	c-0.4,0.1-0.8,0.2-1.2,0.2c-0.4,0-0.8,0-1.2-0.1c0,0-0.1,0-0.1,0c-0.3,0.2-0.7,0.4-1,0.5l0,0c-0.1,0-0.2,0.1-0.4,0.1
	C9.1,16.7,9.1,16.7,9.1,16.7z"/>
<path class="st3" d="M10,11.7l0,1.9l-0.5-0.4c-0.5,0.8-0.7,1.7-0.4,2.3l0.1,0.2L9,15.6c-0.5-0.2-0.9-0.5-1.3-0.9l0,0l0,0
	c0-0.2,0-0.5,0-0.7l0,0c0.1-0.3,0.2-0.7,0.4-1c0.1-0.2,0.2-0.4,0.4-0.6L8,12L10,11.7z"/>
<path class="st3" d="M13.3,10.8l0-1.9l0.5,0.4c0.5-0.8,0.7-1.7,0.4-2.3L14,6.8l0.2,0.1c0.5,0.2,0.9,0.5,1.3,0.9l0,0l0,0
	c0,0.2,0,0.5,0,0.7l0,0c-0.1,0.3-0.2,0.7-0.4,1c-0.1,0.2-0.2,0.4-0.4,0.6l0.4,0.3L13.3,10.8z"/>
<path class="st3" d="M12.1,12.9l1.9,0l-0.4,0.5c0.8,0.5,1.7,0.7,2.3,0.4l0.2-0.1L16,13.9c-0.2,0.5-0.5,0.9-0.9,1.3l0,0l0,0
	c-0.2,0-0.5,0-0.7,0l0,0c-0.3-0.1-0.7-0.2-1-0.4c-0.2-0.1-0.4-0.2-0.6-0.4l-0.3,0.4L12.1,12.9z"/>
<path class="st3" d="M11.2,9.7l-1.9,0l0.4-0.5C8.8,8.8,8,8.6,7.4,8.8L7.2,8.9l0.1-0.2c0.2-0.5,0.5-0.9,0.9-1.3l0,0l0,0
	c0.2,0,0.5,0,0.7,0l0,0c0.3,0.1,0.7,0.2,1,0.4c0.2,0.1,0.4,0.2,0.6,0.4l0.3-0.4L11.2,9.7z"/>
<path class="st4" d="M15.7,11.2c0,2.2-1.8,4-4,4c-2.2,0-4-1.8-4-4c0-2.2,1.8-4,4-4C13.9,7.2,15.7,9,15.7,11.2z"/>
<path class="st5" d="M10.2,9.8C9.9,9.7,9.8,9.6,9.6,9.5C9.3,9.3,9.1,9.1,8.9,8.9c-0.5-0.5-0.8-1-0.7-1.5L8,7.6
	C7.7,8,7.2,8.6,7.2,8.9l0,0c0.1,0.2,0.2,0.4,0.3,0.7l0,0c0.2,0.3,0.6,0.8,2,1.5l-0.2,0.5l1.9-0.5l-0.7-1.7L10.2,9.8z"/>
<path class="st5" d="M13.1,12.8c0.2,0.1,0.4,0.2,0.6,0.3c0.3,0.2,0.5,0.4,0.7,0.6c0.5,0.5,0.8,1,0.7,1.5l0.2-0.2
	c0.4-0.4,0.9-1.1,0.9-1.4l0,0c-0.1-0.2-0.2-0.4-0.3-0.7l0,0c-0.2-0.3-0.6-0.8-2-1.5L14,11l-1.9,0.5l0.7,1.7L13.1,12.8z"/>
<path class="st5" d="M13.1,9.8c0.1-0.2,0.2-0.4,0.3-0.6c0.2-0.3,0.4-0.5,0.6-0.7c0.5-0.5,1-0.8,1.5-0.7l-0.2-0.2
	C15,7.3,14.3,6.8,14,6.8l0,0c-0.2,0.1-0.4,0.2-0.7,0.3l0,0c-0.3,0.2-0.8,0.6-1.5,2l-0.5-0.2l0.5,1.9l1.7-0.7L13.1,9.8z"/>
<path class="st5" d="M10.1,12.7C10,13,9.9,13.1,9.8,13.3c-0.2,0.3-0.4,0.5-0.6,0.7c-0.5,0.5-1,0.8-1.5,0.7l0.2,0.2
	c0.4,0.4,1.1,0.9,1.4,0.9l0,0c0.2-0.1,0.4-0.2,0.7-0.3l0,0c0.3-0.2,0.8-0.6,1.5-2l0.5,0.2l-0.5-1.9l-1.7,0.7L10.1,12.7z"/>
</svg>
